<svg width="231" height="37" viewBox="0 0 231 37" fill="none" xmlns="http://www.w3.org/2000/svg">
<path d="M8.22976 35L0.0195312 5.90909H5.68714L10.9286 27.2869H11.1985L16.7951 5.90909H21.9514L27.5621 27.3011H27.8178L33.0593 5.90909H38.7269L30.5167 35H25.3178L19.494 14.5881H19.2667L13.4286 35H8.22976ZM47.4442 35.4261C45.3136 35.4261 43.467 34.9574 41.9045 34.0199C40.342 33.0824 39.1299 31.7708 38.2681 30.0852C37.4158 28.3996 36.9897 26.4299 36.9897 24.1761C36.9897 21.9223 37.4158 19.9479 38.2681 18.2528C39.1299 16.5578 40.342 15.2415 41.9045 14.304C43.467 13.3665 45.3136 12.8977 47.4442 12.8977C49.5749 12.8977 51.4215 13.3665 52.984 14.304C54.5465 15.2415 55.7539 16.5578 56.6062 18.2528C57.4679 19.9479 57.8988 21.9223 57.8988 24.1761C57.8988 26.4299 57.4679 28.3996 56.6062 30.0852C55.7539 31.7708 54.5465 33.0824 52.984 34.0199C51.4215 34.9574 49.5749 35.4261 47.4442 35.4261ZM47.4727 31.3068C48.628 31.3068 49.5939 30.9896 50.3704 30.3551C51.1469 29.7112 51.7246 28.8494 52.1033 27.7699C52.4916 26.6903 52.6857 25.4877 52.6857 24.1619C52.6857 22.8267 52.4916 21.6193 52.1033 20.5398C51.7246 19.4508 51.1469 18.5843 50.3704 17.9403C49.5939 17.2964 48.628 16.9744 47.4727 16.9744C46.2889 16.9744 45.3041 17.2964 44.5181 17.9403C43.7416 18.5843 43.1592 19.4508 42.771 20.5398C42.3922 21.6193 42.2028 22.8267 42.2028 24.1619C42.2028 25.4877 42.3922 26.6903 42.771 27.7699C43.1592 28.8494 43.7416 29.7112 44.5181 30.3551C45.3041 30.9896 46.2889 31.3068 47.4727 31.3068ZM65.4052 22.2159V35H60.2631V13.1818H65.1779V16.8892H65.4336C65.9355 15.6676 66.7357 14.697 67.8342 13.9773C68.9421 13.2576 70.3105 12.8977 71.9393 12.8977C73.445 12.8977 74.7565 13.2197 75.8739 13.8636C77.0008 14.5076 77.872 15.4403 78.4876 16.6619C79.1126 17.8835 79.4203 19.3655 79.4109 21.108V35H74.2688V21.9034C74.2688 20.4451 73.89 19.304 73.1325 18.4801C72.3844 17.6562 71.3474 17.2443 70.0217 17.2443C69.122 17.2443 68.3219 17.4432 67.6211 17.8409C66.9298 18.2292 66.3853 18.7926 65.9876 19.5312C65.5993 20.2699 65.4052 21.1648 65.4052 22.2159ZM90.7347 35.3835C89.0207 35.3835 87.4866 34.9432 86.1325 34.0625C84.7783 33.1818 83.7082 31.9034 82.9222 30.2273C82.1362 28.5511 81.7433 26.5152 81.7433 24.1193C81.7433 21.6951 82.141 19.6496 82.9364 17.983C83.7414 16.3068 84.8256 15.0426 86.1893 14.1903C87.5529 13.3286 89.0728 12.8977 90.7489 12.8977C92.0273 12.8977 93.0785 13.1155 93.9023 13.5511C94.7262 13.9773 95.3796 14.4934 95.8626 15.0994C96.3455 15.696 96.7196 16.2595 96.9847 16.7898H97.1978V5.90909H102.354V35H97.2972V31.5625H96.9847C96.7196 32.0928 96.3361 32.6562 95.8342 33.2528C95.3323 33.84 94.6694 34.3419 93.8455 34.7585C93.0217 35.1752 91.9847 35.3835 90.7347 35.3835ZM92.1694 31.1648C93.2584 31.1648 94.1864 30.8712 94.9535 30.2841C95.7205 29.6875 96.3029 28.8589 96.7006 27.7983C97.0984 26.7377 97.2972 25.5019 97.2972 24.0909C97.2972 22.6799 97.0984 21.4536 96.7006 20.4119C96.3124 19.3703 95.7347 18.5606 94.9677 17.983C94.2101 17.4053 93.2773 17.1165 92.1694 17.1165C91.0236 17.1165 90.0671 17.4148 89.3001 18.0114C88.533 18.608 87.9554 19.4318 87.5671 20.483C87.1789 21.5341 86.9847 22.7367 86.9847 24.0909C86.9847 25.4545 87.1789 26.6714 87.5671 27.7415C87.9648 28.8021 88.5472 29.6402 89.3143 30.2557C90.0908 30.8617 91.0425 31.1648 92.1694 31.1648ZM115.493 35.4261C113.305 35.4261 111.416 34.9716 109.825 34.0625C108.243 33.1439 107.027 31.8466 106.174 30.1705C105.322 28.4848 104.896 26.5009 104.896 24.2188C104.896 21.9744 105.322 20.0047 106.174 18.3097C107.036 16.6051 108.239 15.2794 109.782 14.3324C111.326 13.3759 113.139 12.8977 115.223 12.8977C116.567 12.8977 117.836 13.1155 119.029 13.5511C120.232 13.9773 121.293 14.6402 122.211 15.5398C123.139 16.4394 123.868 17.5852 124.399 18.9773C124.929 20.3598 125.194 22.0076 125.194 23.9205V25.4972H107.311V22.0312H120.265C120.256 21.0464 120.043 20.1705 119.626 19.4034C119.209 18.6269 118.627 18.0161 117.879 17.571C117.14 17.1259 116.279 16.9034 115.294 16.9034C114.243 16.9034 113.319 17.1591 112.524 17.6705C111.728 18.1723 111.108 18.8352 110.663 19.6591C110.227 20.4735 110.005 21.3684 109.995 22.3438V25.3693C109.995 26.6383 110.227 27.7273 110.691 28.6364C111.155 29.536 111.804 30.2273 112.637 30.7102C113.471 31.1837 114.446 31.4205 115.564 31.4205C116.312 31.4205 116.989 31.3163 117.595 31.108C118.201 30.8902 118.726 30.5729 119.172 30.1562C119.617 29.7396 119.953 29.2235 120.18 28.608L124.981 29.1477C124.678 30.4167 124.1 31.5246 123.248 32.4716C122.405 33.4091 121.326 34.1383 120.01 34.6591C118.693 35.1705 117.188 35.4261 115.493 35.4261ZM127.544 35V13.1818H132.53V16.8182H132.757C133.155 15.5587 133.837 14.5881 134.803 13.9062C135.778 13.215 136.891 12.8693 138.141 12.8693C138.425 12.8693 138.742 12.8835 139.093 12.9119C139.453 12.9309 139.751 12.964 139.988 13.0114V17.7415C139.77 17.6657 139.424 17.5994 138.951 17.5426C138.487 17.4763 138.037 17.4432 137.601 17.4432C136.664 17.4432 135.821 17.6468 135.073 18.054C134.334 18.4517 133.752 19.0057 133.326 19.7159C132.9 20.4261 132.686 21.2453 132.686 22.1733V35H127.544Z" fill="#503453"/>
<circle cx="212.5" cy="18.5" r="18.5" fill="#ECDC49"/>
<circle cx="192.5" cy="18.5" r="18.5" fill="#DE6D37"/>
<circle cx="174.5" cy="18.5" r="18.5" fill="#BC3556"/>
</svg>
